# xmcd
#
# Track frame offsets: 
#        150
#        14522
#        29124
#        42529
#        56103
#        70816
#
# Disc length: 1118 seconds
#
# Revision: 2
# Processed by: cddbd v1.5.2PL0 Copyright (c) Steve Scherf et al.
# Submitted via: ExactAudioCopy v0.99pb3
#
DISCID=58045c06
DTITLE=Delta Blue - Turn
DYEAR=1900
DGENRE=Blues
TTITLE0=Riverblues
TTITLE1=Dare to love me
TTITLE2=Be sharp
TTITLE3=When I get the blues
TTITLE4=Walk your blues down
TTITLE5=Delta turn
EXTD=
EXTT0=
EXTT1=
EXTT2=
EXTT3=
EXTT4=
EXTT5=
PLAYORDER=
